<svg xmlns="http://www.w3.org/2000/svg" viewBox="0 0 800 214" role="img" aria-label="Palworld"><path d="M253.943 162.898s0 .019-.009.028c-.009.036-.027.073-.036.1-.053.127-.179.191-.304.2a.407.407 0 0 1-.268.101 1.76 1.76 0 0 0-.045.373c0 .21-.152.346-.313.374-.08.164-.286.218-.465.136-.25-.109-.456-.3-.635-.519a.281.281 0 0 0-.143.036c-.107.046-.259.064-.349-.045-.411-.51-.34-1.148-.018-1.686.117-.2.26-.382.412-.546v-42.757s0-.009-.009-.018c-.027-.073-.063-.145-.09-.218-.035-.073-.08-.137-.116-.21-.018-.027-.027-.055-.045-.082-.071-.1-.152-.209-.223-.31-.09-.127-.17-.264-.26-.401a.37.37 0 0 1-.143.055c0 .018 0 .037-.009.055a.402.402 0 0 1-.447.291c-.214-.027-.331-.2-.349-.41a10.765 10.765 0 0 1-.053-.738c-.242.119-.608-.063-.599-.373v-.055a.421.421 0 0 1-.117-.273c0-.146-.036-.292-.071-.428a4.533 4.533 0 0 1-.242-.173 1.683 1.683 0 0 1-.51-.656c-.053-.128-.107-.256-.143-.392-.035-.137-.035-.273-.062-.41a.272.272 0 0 1 .134-.292 3.813 3.813 0 0 1-.179-.218 3.144 3.144 0 0 1-.322-.52c-.045-.091.081-.155.125-.073.197.31.438.593.671.875.259.283.546.501.859.683a.19.19 0 0 1 .089.055c.179.1.358.182.546.255 0-.036.017-.073.035-.1.17-.692.689-1.303 1.252-1.686.09-.063.188-.118.287-.173V94.578c0-2.788 0-5.612.751-8.3a7.944 7.944 0 0 0-.206-.383c-.152-.282-.322-.546-.483-.829-.053-.091-.107-.191-.17-.282-.018-.028-.035-.055-.053-.073l-.009-.01v-.008a.279.279 0 0 1-.099-.22c-.161-.035-.313-.081-.474-.117-.259.063-.518.109-.769.136-.241.027-.358-.237-.331-.437 0-.037.009-.073.018-.11v-.027c0-.09.027-.164.09-.228.152-.154.429-.255.644-.3.232-.055.456-.046.679-.019.036-.018.081-.027.117-.045.205-.1.447-.064.572.155.322.036.635 0 .939-.146.331-.164.617-.4.93-.61a.32.32 0 0 1 .206-.119h.036c.5-.783 1.109-1.54 1.842-2.268a.315.315 0 0 1 .134-.337h.009-22.377c-.268.2-.59.337-.93.41-.259.282-.492.583-.715.865-.081.11-.287.128-.394.055a8.858 8.858 0 0 1-.921-.738 3.593 3.593 0 0 1-1.207-.273 5.094 5.094 0 0 1-.635-.32h-10.607v.01c0 .145 0 .264-.117.373-.116.128-.286.183-.438.246a3.53 3.53 0 0 0-.179.082c-.027.028-.045.064-.071.091a.49.49 0 0 1-.081.064.07.07 0 0 1-.018.037c3.506 4.09 4.445 8.955 4.445 13.693v15.187c.081 0 .161.009.224.055l.009-.009c.223-.155.527-.283.778-.119l.018.019c.062-.064.125-.128.188-.183.286-.291.697.082.536.42-.08.173-.152.346-.232.519 0 .036-.018.073-.036.118-.045.082-.09.164-.107.255a.25.25 0 0 1-.072.137c-.492 1.221-.903 2.478-1.315 3.726v51.357c0 4.501-.474 8.518-2.656 12.072-.107.464-.179.938-.259 1.403-.099.61-.206 1.22-.376 1.813h15.615c.108-.246.224-.483.358-.72.036-.064.072-.119.108-.182a1.394 1.394 0 0 0-.117-.11c-.143-.109-.035-.319.099-.373.34-.128.617-.437.903-.674-.027-.155-.089-.31-.054-.465.054-.191.242-.328.421-.428-.045-.064-.108-.128-.152-.192-.063-.1-.045-.273.044-.355.018-.018.045-.036.072-.055.054-.036.098-.081.152-.118l.259-.209c.099-.073.242-.046.331.027.107.082.125.191.107.319a2.697 2.697 0 0 0 .278 1.539c.098.201.259.383.188.602.125.1.25.209.393.282a.31.31 0 0 1 .152.273.5.5 0 0 1-.054.228c.135.128.26.274.385.428.045.055.089.11.125.174h26.858c.161-.256.322-.52.483-.784.187-.301.348-.619.492-.938.035-.091.044-.091.071-.183a.497.497 0 0 0 .036-.109.558.558 0 0 1 .045-.109c-.018.054 0 0 0-.009a4.46 4.46 0 0 0 .134-.447c.044-.164.089-.337.116-.501.018-.082.027-.173.045-.255v-.073c0-.054.009-.109.018-.164.035-.455.044-.92.071-1.376a.32.32 0 0 1 .045-.164c-.018-.209-.036-.41-.045-.619-.009-.164.26-.21.286-.036.027.154.045.309.063.464.188-.018.385.1.376.355.035.246.062.483.062.729 0 .046.009.091.018.137.036.282.09.556.152.829.018.073.036.155.063.228.062.136.116.273.179.401.42.164.796.282 1.252.291.348 0 .536.538.188.711a2.135 2.135 0 0 0-.725.601 12.096 12.096 0 0 0 .617 1.011h7.083l4.571-15.114c-.054-.082-.099-.155-.152-.228a6.845 6.845 0 0 0-.618-.774c-.143-.146-.08-.41.117-.456a2.729 2.729 0 0 1 1.118-.064l2.674-8.837c-9.74 5.712-19.095 6.988-29.997 7.015l.027.009ZM399.249 80.784c-.206-.228-.322-.501-.421-.783H395.6c-.242.182-.501.337-.76.492a3.454 3.454 0 0 1-.51.683c-.242.246-.528.455-.859.565-.205.064-.438.1-.653.073-.107.1-.223.2-.322.31-.152.163-.429.154-.581 0-.161-.174-.143-.42 0-.593.027-.027.054-.055.072-.082a1.196 1.196 0 0 1-.099-.392c-.17-.127-.331-.264-.492-.4a9.147 9.147 0 0 0-.572-.465c-.107-.064-.224-.128-.34-.191h-25.972l-.25.255a.683.683 0 0 1 .018.228.646.646 0 0 1-.51.519c-.072.009-.134 0-.188 0-.197.218-.394.437-.59.647.796 2.24 1.234 4.573 1.234 7.443 0 3.58-.537 8.4-1.082 11.707l-6.35 37.463-4.043-13.083s-.044-.045-.071-.063l-.725-.711c-.044-.046-.098-.091-.143-.146a4.174 4.174 0 0 1-.447-.228 9.504 9.504 0 0 0-.653-.382s-.018 0-.027-.009h-.044c-.519-.046-1.029-.064-1.548-.092-.044.01-.089.028-.134.037-.358.082-.536-.383-.241-.592.107-.073.232-.164.357-.246.027-.064.054-.137.081-.201a.287.287 0 0 1 .027-.255c.125-.182.259-.355.411-.51a.306.306 0 0 1 .179-.091c.42-.465.921-.856 1.404-1.248 0 0 0-.018.018-.028.018-.027.045-.063.063-.091l-12.333-39.913a2.693 2.693 0 0 1-.188.346c-.286.446-.68.792-1.136 1.047-.045.028-.098.055-.143.082l-6.377 20.909.143.146c.367.374.769.711 1.163 1.048.375.319.697.729 1.028 1.093.349.392.635.847.635 1.312.09.082.179.164.251.255.349.419.527.875.626 1.403v.046c.134.146.268.282.402.428.286.301.143.856-.25.948-.063.154-.26.255-.421.091-.259-.246-.59-.328-.894-.483-.492.018-.984-.119-1.431-.346a1.782 1.782 0 0 1-.313.164 7.199 7.199 0 0 1-2.915.382l-8.801 28.826-.045-.237a.208.208 0 0 1-.08.11.295.295 0 0 1-.027.246.265.265 0 0 1-.161.136c-.027 0-.063.01-.089.01a.331.331 0 0 1-.224-.092s-.009-.018-.018-.018a.378.378 0 0 1-.071-.1c-.009-.018-.018-.046-.036-.064-.036 0-.081.009-.125 0a1.193 1.193 0 0 1-.358 0c-.116-.018-.188-.2-.116-.291.143-.192.259-.429.205-.684-.062-.255-.304-.419-.527-.51-.117-.045-.188-.173-.117-.3a26.45 26.45 0 0 1 1.127-1.777s.009-.018.018-.027l-3.175-17.711a5.504 5.504 0 0 1-.778-1.039.418.418 0 0 1-.045-.319l-.143-.146a.402.402 0 0 1-.071-.1c-.233.018-.456.027-.689.036-.313 0-.528-.364-.358-.637.108-.182.224-.365.34-.547-.107-.127-.152-.346-.045-.492.018-.027.045-.055.063-.082 0 0 .018-.018.018-.027.089-.119.179-.228.268-.337.134-.756.26-1.522.376-2.278l-2.808-15.661c-.403-1.658-.537-3.58-.537-5.376 0-3.58.68-6.741 2.164-9.775h-7.387s.08.073.107.127c.054.1.072.219.036.328a.415.415 0 0 1-.188.41c-.59.365-1.279.593-1.967.51-.027 0-.054 0-.081-.009a.4.4 0 0 1-.134.31c-.143.119-.322.082-.456-.027-.626-.501-1.288-1.048-1.878-1.631h-27.117a31.67 31.67 0 0 1 3.926 5.694c.09.11.188.228.286.328.841.838 2.075 1.039 3.122 1.485.259.11.375.346.25.62 0 .009 0 .018-.009.018v.018c0 .028-.018.055-.027.073a1.594 1.594 0 0 0-.044.2v.356c0 .3.035.638.071.92.09.683.233 1.358.242 2.05a.43.43 0 0 1-.206.364 1.243 1.243 0 0 0-.367.283c-.036.045-.062.064-.071.082a3.152 3.152 0 0 1-.099.419.484.484 0 0 1-.071.136c.715 2.25 1.332 4.592 1.94 7.043l13.452 52.477c.116.11.223.228.322.328.286.283.563.565.849.848.116.118.233.236.358.346a.63.63 0 0 1 .215.501c0 .219-.188.41-.403.41-.125 0-.241-.027-.367-.055 0 .319.045.647.072.957.018.264.027.537.018.802l6.314 24.626h15.276c.438-.228.84-.501 1.162-.884.17-.201.501-.1.617.1.197.055.349.301.465.456l.108.164c.08-.019.161-.037.241-.037.143 0 .242.082.295.192h6.574l8.782-38.702 4.624 18.922c.295.137.555.328.769.547l.295.109s.018 0 .027-.009c.126-.036.278.037.313.164.403.191.805.428 1.244.529.178.045.223.282.107.41-.268.291-.573.555-.841.856 0 0-.018.018-.018.027.018.21.036.41.036.62 0 .264-.358.291-.429.064 0-.01 0-.028-.009-.037a1.48 1.48 0 0 1-.251.383 3.37 3.37 0 0 1-.17.729l3.202 13.083c.197-.092.412-.01.528.173a.188.188 0 0 0 .036.054c.143-.018.304.037.375.183.081.164.161.318.242.482.116-.154.241-.3.366-.446.17-.191.403.018.376.219-.054.391-.089.783-.125 1.184.152.155.304.319.456.474h16.859c.089-.091.187-.173.277-.255.107-.101.241-.21.358-.319v-.173c0-.064.035-.119.08-.146 0-.073 0-.146-.009-.219-.009-.1-.027-.2-.027-.309 0-.119.045-.21.117-.292a2.106 2.106 0 0 0-.635-.656c-.108-.055-.215-.109-.313-.164-.179-.091-.045-.401.134-.319.018 0 .027.009.044.018a1.764 1.764 0 0 1 .251.128c.34.182.688.401.93.711a.704.704 0 0 1 .125.209.498.498 0 0 1 .188.355v.073a.419.419 0 0 1 .152.155l.027.055a.457.457 0 0 1 .223.264l.081.246a.312.312 0 0 1 .268.027c.322.201.662.392.993.602h2.907l2.978-12.464a3.34 3.34 0 0 1-.152-.592c-.063-.383-.054-.701.098-1.057.161-.346.403-.647.581-.993.153-.3.17-.71.179-1.057 0-.355-.026-.701-.053-1.056-.054-.62-.045-1.221.098-1.813-.286-.092-.367-.474-.17-.711a5.988 5.988 0 0 1 1.395-1.257c.081-.265.135-.538.152-.82.027-.538-.017-1.085 0-1.622.009-.392.045-.802.179-1.175.09-.237.188-.474.304-.702.26-.556.555-1.093.859-1.622l2.191-9.192c0-.228 0-.456.009-.674-.116-.265-.152-.556-.018-.866a.43.43 0 0 1 .054-.127c-.045-.092-.099-.256-.125-.31-.349-.629-.609-1.403-1.083-1.941a.691.691 0 0 1-.169-.382 6.105 6.105 0 0 0-1.673-1.103c-.358-.155-.501-.656-.116-.884.474-.273.921-.592 1.44-.774.393-.137.814-.209 1.136-.419.08-.328.223-.62.465-.92.107-.128.214-.264.322-.392 0-.009.053-.064.107-.118-.009 0 0-.01.063-.091l.107-.137.492-.665c.411-.547.831-1.221 1.431-1.585a2 2 0 0 1 .295-.137l6.699-28.061a.29.29 0 0 1-.188-.146 1.836 1.836 0 0 1-.295-.902c-.251.201-.635-.136-.465-.437.152-.264.339-.501.545-.72.456-.637.877-1.312 1.377-1.913l.403-1.704c1.672-7.48 3.228-12.837 7.468-18.922a.391.391 0 0 1-.304-.119h-.018ZM672.242 156.047c-.322.182-.644.365-.957.538-.161.455-.394.893-.761 1.12a8.365 8.365 0 0 1-1.144 1.431c-.206.2-.626.136-.68-.183 0-.027 0-.054-.009-.082h-.304c-.233 0-.483 0-.716-.054a.994.994 0 0 1-.402-.246c-8.04 3.498-16.054 4.336-25.158 4.336h-.161c-.188.237-.403.447-.671.584a1.686 1.686 0 0 1-.957.182c-.098.3-.152.619-.224.929-.062.301-.5.428-.697.191-.286-.346-.564-.747-.528-1.211.027-.365.215-.684.403-.993.205-.347.393-.684.483-1.075.071-.338.089-.666-.188-.902-.251-.219.071-.611.34-.456a.576.576 0 0 0 .429.091V106.23a3.596 3.596 0 0 1-.778-.2c-.081-.037-.161-.073-.233-.128-.849.683-1.502 1.658-2.522 2.105-.197.082-.42-.146-.241-.328.223-.219.465-.419.706-.62a.396.396 0 0 1-.089-.382c.349-1.13.993-2.114 1.681-3.053.474-.655.957-1.311 1.395-1.995a5.66 5.66 0 0 1 .054-1.73c.009-.055.027-.12.036-.174v-5.11c0-4.584 0-9.266 3.336-13.275-.018 0-.027.018-.045.018-.232.064-.429-.082-.519-.3a.07.07 0 0 0-.018-.037c-.375-.027-.76-.1-1.117-.219-.197-.064-.376-.3-.296-.528.036-.091.063-.173.099-.264h-17.342l.143.027c.322.064.313.501.081.656-.304.21-.617.364-.957.492-.036.01-.063.018-.09.018.018.073.036.146.045.228.027.21-.179.474-.402.319a13.754 13.754 0 0 1-.573-.447.349.349 0 0 1-.25-.173l-.063-.1a13.933 13.933 0 0 1-1.037-1.02H608.51c.089.31.152.628.197.929.044.319-.358.483-.6.346a2.506 2.506 0 0 1-.706-.601c-.054.31-.107.62-.224.92a.49.49 0 0 1-.277.292c-.009.018-.027.045-.036.063 2.826 3.863 3.605 8.3 3.605 12.637v40.652c.178.264.312.564.429.847a.437.437 0 0 1 .554.282c.26.766.313 1.586.286 2.387.17.055.313.201.313.401 0 .574-.035 1.139-.089 1.713 0 .082.018.155.027.237a18.6 18.6 0 0 1 .054 2.441c.286.183.536.429.751.738.277.401.438.866.662 1.303.608.529 1.296.966 1.976 1.422.429.127.805.446 1.109.792a.98.98 0 0 1 .251.556c.053 0 .098 0 .143.036v-.009c.098.055.187.11.286.164.125.073.17.192.17.328a.641.641 0 0 0 .143.073c.528.201.492.993-.072 1.066-.223.246-.644.228-.867-.018a.346.346 0 0 1-.268.018 3.651 3.651 0 0 0-1.53-.109.793.793 0 0 1-.384.063h-.027c-.76.164-1.485.511-2.165.93-.554.519-1.1 1.066-1.744 1.457v13.703c0 5.922-.813 11.015-5.267 15.288h24.648c.555-.392 1.109-.775 1.628-1.212.375-.328.76-.665 1.064-1.066.331-.447.572-.975.689-1.522.08-.373.626-.209.554.155-.062.347-.107.693-.143 1.048.018.036.036.082.054.128.027.072.062.154.089.227a.806.806 0 0 1 .054.255c0 .055 0 .11-.027.155h.045c.25.028.51.055.76.119.358.091.358.647 0 .738-.224.054-.447.118-.671.182 0 .073.009.146.018.219.17 0 .331.1.376.3.018.091.044.182.071.274h30.399l.483-1.586a2.027 2.027 0 0 1-.161-.246 2.124 2.124 0 0 1-.196-.437c-.009 0-.018 0-.027.009a.217.217 0 0 1-.251-.127.239.239 0 0 1-.009-.137c0-.009.009-.027.018-.037a.167.167 0 0 1-.035-.072 1.997 1.997 0 0 0-.913-1.066c-.053.027-.116.054-.17.045h-.071c-.224.046-.465.1-.644.228a.986.986 0 0 0-.107.1.406.406 0 0 1-.126.173c-.098.173-.17.383-.241.547-.063.155-.295.064-.295-.082 0-.119-.018-.246-.036-.365a.254.254 0 0 1-.125-.164 4.56 4.56 0 0 0-.394-.883c-.053-.018-.098-.037-.152-.055a.422.422 0 0 1-.259-.237c-.116-.027-.233-.064-.349-.1-.17-.064-.411-.182-.402-.401v-.036a2.988 2.988 0 0 1-.483-.146c-.054-.027-.027-.128.035-.119.188.019.376.055.573.092a.349.349 0 0 1 .196-.055c.045 0 .099 0 .144.018H660.794s-.081-.018.009 0c.036 0 .071 0 .098.018.036 0 .063.009.099.019H661.026c.036 0 .072 0 .108.009.026 0 .196.027.044 0h.054c.054 0 .107.009.17.018.152-.037.313-.037.474-.046h.528c.062 0 .134 0 .196.009a.58.58 0 0 1 .117-.136c.214-.173.518-.237.778-.283.241-.036.483-.073.724-.082.161 0 .313.11.376.255.062.146.036.356-.09.456-.018.018-.044.036-.062.064h.027c.178.036.348.073.527.109h.018c.233-.082.474-.155.716-.228.071-.173.232-.291.402-.364.018-.037.027-.073.054-.109.089-.155.214-.319.375-.42l2.218-7.324a1.833 1.833 0 0 1-.313-.975c0-.155.099-.301.233-.356v-.018a.33.33 0 0 0-.098-.164c-.135-.136-.349-.218-.582-.273-.331-.082-.349-.529-.089-.702.349-.237.679-.455.966-.756.295-.3.509-.665.688-1.038.242-.511.555-.957.886-1.413.018-.027.035-.054.062-.082l1.816-5.985c-.045-.128-.09-.255-.125-.383l.018.009ZM128.465 76.402c-.071-.018-.143-.037-.206-.064a2.62 2.62 0 0 1-.697-.428 6.727 6.727 0 0 1-.295-.255c-.063.045-.135.09-.197.136a.973.973 0 0 1-.501.146.27.27 0 0 1-.179-.063.677.677 0 0 1 .036.127c0 .027.009.046.009.073.045.073.089.137.116.219.018.036-.018.09-.054.1-.035.018-.08 0-.107-.037-.018-.027-.027-.045-.045-.073a.135.135 0 0 1-.062.037c0 .1.009.191.018.291.009.146-.206.164-.242.037-.036-.119-.062-.237-.089-.355l-.009-.01c-.045.046-.125.046-.161-.036-.045-.11-.081-.228-.125-.337-.152 0-.322-.11-.34-.273V75.6s-.018 0-.027-.009c-.081-.045-.152-.11-.224-.173-.107.237-.25.456-.429.638-.08.082-.179.1-.277.082l-.027.282c-.018.137-.215.137-.206 0 0-.146.009-.3.018-.446 0-.019-.018-.037-.027-.055a4.325 4.325 0 0 1-.026-.11c-.072.055-.188 0-.161-.1.035-.1.062-.19.098-.291a8.027 8.027 0 0 1-.125-1.394c-.179-.355-.233-.802-.224-1.194a5.593 5.593 0 0 0-.697-.282c-.179-.055-.278-.237-.242-.428.09-.401.188-.82.411-1.166a.42.42 0 0 1 .242-.164 8.34 8.34 0 0 1-.358-1.03c-9.185-8.263-23.79-10.778-37.652-10.778h-4.204a8.164 8.164 0 0 0-1.055 0h-5.196c-2.692-.182-5.16-.665-7.36-1.44-.028.074-.072.137-.144.165a4.502 4.502 0 0 1-.948.328.33.33 0 0 1-.402-.228h-.072a.624.624 0 0 1-.232-.046c-.09.019-.17.046-.26.073-.16.055-.34-.045-.402-.2-.072-.164 0-.319.125-.428v-.01c-.134-.2-.232-.418-.34-.646-.036-.082-.08-.164-.116-.246-3.882-2.068-6.654-5.303-8.022-9.657a2.044 2.044 0 0 1-.492-.474c-.01-.019-.018-.028-.027-.046a.188.188 0 0 1-.099.073c-.044.01-.098.018-.143.027a.205.205 0 0 1-.178-.1.218.218 0 0 1 0-.21.199.199 0 0 1 .044-.072c0-.028-.009-.055-.009-.082v-.055c0-.018 0-.036.01-.054 0-.037.008-.064.017-.092-.197-.118-.134-.428.072-.464a2.66 2.66 0 0 1 .08-.365c.045-.127.099-.246.161-.364-.044-.255-.09-.51-.134-.775-1.145-7.516 2.352-14.586 4.669-18.294v-.118c.009-.155.035-.31.062-.456.045-.282.099-.555.206-.82a1.54 1.54 0 0 1 .286-.464v-.21c0-.045 0-.1.009-.146-2.084.866-6.117 3.062-8.166 7.672 0 0 .43-6.205 3.551-15.68-.018-.419.054-.838.188-1.202.134-.356.322-.666.554-.966C58.822 9.02 60.646 4.656 63.043 0c0 0-10.374 12.263-14.945 27.733.063.2.08.41.09.62.044.054.062.109.044.181-.044.137-.151.237-.232.347l-.242.3c-.035.037-.062.082-.098.128-2.37 8.937-2.674 18.813 2.093 27.96 0 0-5.17-1.967-18.254-9.338-.08-1.12-.071-2.67.108-4.6-.215-.12-.439-.229-.662-.347-.17-.091-.233-.346-.134-.51.241-.365.402-.765.634-1.13.152-.246.296-.52.492-.738.609-3.963 1.852-9.065 4.222-15.087 0 0-2.299 2.414-4.696 6.05 0 .072 0 .145-.009.209v.71c0 .183.054.438-.071.584-.08.09-.206.127-.322.145-.099.019-.179-.027-.25-.082a1.444 1.444 0 0 1-.367.374.937.937 0 0 1-.268.137c-1.932 3.298-3.667 7.279-4.007 11.288-2.674-1.686-5.277-3.945-7.683-6.542a1.467 1.467 0 0 1-.563 0c-.027.037-.054.073-.072.091a.396.396 0 0 0-.098.256c-.018.473-.724.482-.733 0 0-.711-.242-1.33-.51-1.941-.125-.292-.313-.574-.465-.857a4.924 4.924 0 0 1-.215-.437 1.473 1.473 0 0 1-.125-.383C9.257 26.931 4.74 16.6 4.785 9.402c0 0-1.708 4.018-1.53 10.122.305.428.546.902.743 1.385.116.3.205.601.241.93.018.163.018.336-.027.5.152.2.287.438.403.656.143.283-.09.629-.412.547a2.372 2.372 0 0 1-.608-.246c1.395 9.147 7.397 21.383 26.572 32.151a174.707 174.707 0 0 0 6.672 3.526c1.126.848 2.593 2.096 4.176 3.772.224.055.456.11.68.137.134.018.268.045.402.073.18.036.34.036.456.2.26.364.564.638.93.902.269.2.188.656-.178.665-.152 0-.304 0-.456.01l.026.145a39.936 39.936 0 0 1 3.31 4.747c1.037.063 2.03.437 2.915 1.02.098.064.179.182.17.3V71c.286.237.545.501.796.766.16.164.33.31.492.473.063.064.456.556.215.274.053.054.107.127.16.191.161.064.331.118.492.182.26.1.52.2.779.31.098.027.196.055.277.073.536.164 1.09.346 1.6.592.296.146.555.328.814.528.322.255.465.602.653.957.152.292.35.556.51.847.054.1.108.2.152.301.134.21.268.42.385.629.125.227-.161.437-.35.273-.258-.228-.509-.474-.768-.72-.152.273-.474.474-.76.474-.295 0-.6 0-.904-.027-1.153.492-1.574 1.576-2.423 2.45a8.234 8.234 0 0 1-.725.647c.805 2.888 1.404 6.095 1.7 9.64.84 10.303 1.788 29.181-.323 47.12.224.072.42.246.492.564.018.064.027.128.036.192.08.118.134.246.152.419.018.191.027.382.036.574l.08.519c.144.1.25.246.296.447l.008.009h.027c.018.009.045.018.063.027.26.118.411.465.411.738v.027l.054.164s.009.019.018.019c.134.109.268.218.411.318a.822.822 0 0 1 .68.556c.304.273.564.574.751.948.233.218.465.437.76.564.027.01.018.055 0 .064-.223.146-.429.319-.617.52-.116.391-.384.738-.697 1.056-.09.219-.143.447-.17.684 0 .018-.01.027-.027.036-.036.018-.072.037-.116.027-.018 0-.08-.036-.099-.036-.062.009-.143.155-.187.191a.984.984 0 0 1-.18.164c-.124.101-.259.173-.402.237-.09.128-.188.246-.26.383-.124.219-.25.446-.384.665a6.42 6.42 0 0 1-.536 1.048 2.085 2.085 0 0 1-.152.729c.062.063.134.127.205.182.439.291.42 1.075-.152 1.211-.286.064-.563.064-.85.101-.277.036-.527.145-.813.164-.17.009-.331 0-.492 0a3.933 3.933 0 0 1-.733.355c-2.63 11.17-6.985 20.809-14.015 26.102a.068.068 0 0 1-.018.036c-.492.93-1.386 1.577-2.137 2.296a.555.555 0 0 1-.215.192.359.359 0 0 1-.358 0 2.074 2.074 0 0 1-.447.4c-.33.21-.724.265-1.109.246a.376.376 0 0 1-.268-.127 1.189 1.189 0 0 1-.447.182c-.734.765-.26 1.185-.26 1.185h8.282c.045-.046.09-.082.134-.128.412-.428.805-.884 1.163-1.358.125-.182.25-.355.384-.519.18-.218.376-.446.617-.592-.017-.027-.026-.064-.017-.1 0-.028 0-.055.008-.073a.26.26 0 0 1 .099-.137c.018-.009.027-.018.045-.027.018 0 .035-.018.053-.018a.272.272 0 0 1 .126-.009c.035 0 .071 0 .098.027 0 0 .009 0 .018.009.009 0 .027.018.035.027.036.028.063.064.063.11 0 .045-.027.082-.063.109-.017.009-.026.018-.044.027h-.01c-.026.019-.053.019-.089.019h-.062v.018l-.01.009a.431.431 0 0 1 .09.091.29.29 0 0 1 .125.219c.01.145-.062.255-.151.364-.018.027-.036.046-.054.073-.036.055-.027.036-.018.018v.009c-.018.028-.036.055-.045.073 0 .009-.018.028-.018.037 0 .027-.018.063-.026.091v.027-.018.064c-.01.118-.063.218-.17.264a.195.195 0 0 1-.126.018c.367.328.689.702.787 1.203v.027h28.88c.115-.055.223-.118.33-.173a.484.484 0 0 1 .116-.064c.134-.064.269-.127.412-.164.188-.045.384-.055.581-.073a4.502 4.502 0 0 0 1.19-.282c.41-.164.804-.365 1.225-.51.107-.037.25.045.268.154.08.41.483.684.805.884.125.082.26.155.402.228h13.05c-1.155-1.394-2.094-2.788-2.854-4.227a.29.29 0 0 1-.116.036.308.308 0 0 1-.161.046h-.036c-.027 0-.027 0 0 0l.027-.028a.667.667 0 0 1-.09.055s0 .009-.008.018c0 0 0 .009-.01.018 0 .019 0 .028-.017.046 0 .018-.018.036-.036.055 0 .045 0 .091-.018.136 0 .037 0 .073-.018.101-.018.036-.045.072-.063.109a.184.184 0 0 1-.107.082.194.194 0 0 0-.044.036 4.635 4.635 0 0 1-.153.374v.009a.622.622 0 0 1-.214.328c0 .018-.01.027-.018.045 0 .01-.018.028-.027.037a.159.159 0 0 1-.036.045c-.026.028-.044.055-.071.064a.071.071 0 0 1-.018.037c.027.027.027.063.018.091-.01.027-.045.054-.08.054h-.081c-.027 0-.054-.018-.072-.036a.52.52 0 0 1-.098-.1.303.303 0 0 1-.036-.128v-.009c0-.009-.018-.018-.018-.027a.341.341 0 0 1-.036-.082c0-.028-.009-.055-.009-.082v-.028a.242.242 0 0 1-.008-.136c0-.046 0-.091.017-.137 0-.027.01-.055.018-.082 0-.082.01-.173.036-.255a.974.974 0 0 0 .036-.155v-.018c0-.018 0-.027.009-.046v-.009c0-.018-.01-.027-.01-.045v-.073c0-.018.01-.027.019-.046l.018-.018a.503.503 0 0 1-.045-.2.721.721 0 0 1 .053-.337c-.035-.073-.071-.146-.089-.219-.027-.082.018-.173.09-.219h.008s.018-.018.018-.036c0 0 0-.018.01-.028 0-.036.017-.072.035-.1a.373.373 0 0 1 .116-.146c0-.036-.009-.072-.017-.109 0-.064 0-.127.008-.191 0-.018 0-.046.018-.064.01-.027.018-.055.036-.082 0-.018.009-.027 0-.018 0-.018.018-.037.027-.055-.116 0-.233-.082-.224-.228 0-.082.018-.154.045-.218.009-.064.018-.128.018-.192a.245.245 0 0 1-.152-.173.908.908 0 0 1-.027-.218c-.054-.356-.098-.72-.152-1.084a3.142 3.142 0 0 1-.09-.647c0-.064.019-.119.054-.155a.818.818 0 0 1-.018-.146v-.146c-.76-2.842-1.02-5.858-1.02-9.165V130.1h6.69c1.566 0 3.122-.064 4.66-.182a3.01 3.01 0 0 1 .17-.164c.134-.119.277-.219.42-.31.09-.209.152-.419.18-.638l-.135-.464c-.134-.483-.26-.966-.393-1.44-.01-.036.017-.073.053-.073-.009-.036-.026-.073-.035-.109-.027-.073 0-.128.035-.173-.08-.055-.16-.109-.214-.201-.036-.063.044-.109.09-.072a.98.98 0 0 1 .106.1c.054.045.117.082.18.118.044 0 .098.028.124.082.036.046.063.1.099.146.08.027.152.064.232.1.045 0 .08.018.108.055.044.027.08.045.116.082.036 0 .072.027.098.064l.027.054s.01.019.018.019a.743.743 0 0 1 .134.282.083.083 0 0 1 .027.064c.045.218.08.437.116.656v.073s.01.018.018.027a.431.431 0 0 0 .09.091.361.361 0 0 1 .053.064v.018c.18-.237.367-.465.59-.656l.054-.055a.933.933 0 0 1 .215-.154c.09-.046.197-.064.277-.119.072-.045.143.046.108.109-.045.082-.117.146-.17.219a2.333 2.333 0 0 0-.18.237c-.008.009-.017.027-.026.036a2.429 2.429 0 0 1-.233.547v.036c.072.082.134.174.197.265a.51.51 0 0 1 .125.036c.17.064.322.173.465.283.152.027.296.082.42.136.1.046.206.1.305.164 18.638-2.824 34.084-15.078 34.084-36.78 0-6.577-1.449-11.953-3.953-16.317l-.081.046Zm-28.557 32.343s.01.036.018.045l.01.018c.026.055.035.128.044.192l.027.191c0 .064 0 .128.009.191 0 0 0 .01.009.019.009.018.026.036.035.054 0 .009.018.019.018.028a.223.223 0 0 1 .054.145c.027.037.054.082.08.128.018.036.045.082.054.118.17.164.331.337.51.492l.107.055a.959.959 0 0 1 .099.082c.017.018.026.036.044.064v.009a.258.258 0 0 1 .081.091c0 .018.009.036 0 .055a.043.043 0 0 1-.054.018.311.311 0 0 1-.08-.046c-.009 0-.027-.018-.036-.018-.009 0-.018 0-.027-.009h-.063c-.017 0-.026-.009-.044-.018-.009 0-.027-.018-.036-.028-.027 0-.054 0-.081-.009a5.598 5.598 0 0 0-.456-.282.215.215 0 0 1-.107 0 .334.334 0 0 1-.081-.046c-.026.019-.053.037-.08.028a.254.254 0 0 1-.143-.037c-.027-.018-.063-.036-.09-.054-.053-.037-.116-.073-.17-.11 0 0-.008 0-.017-.009h-.582c-.018 0-.044 0-.071-.009-4.222 5.448-9.963 9.703-14.927 10.578.08.118.072.309-.08.4a6.702 6.702 0 0 1-1.69.747 5.29 5.29 0 0 1-.403.857c-.126.209-.528.146-.492-.137.018-.191.062-.382.116-.565-.107-.082-.17-.227-.08-.355.035-.046.071-.1.107-.146-.036-.118.009-.228.063-.337.143-.31.268-.628.456-.92v-.638c0-.565 0-1.221.196-1.776V95.644c-.089-.2-.17-.401-.241-.61-.143-.393-.295-.912-.26-1.377a.162.162 0 0 1-.223-.054c-.134-.191-.107-.492-.098-.72.017-.237.062-.474.125-.701a.517.517 0 0 1 .036-.11c-.045-.136-.09-.264-.126-.4-.044-.146-.098-.292-.143-.438-.018-.064-.044-.118-.062-.182a1.533 1.533 0 0 1-.304-.374c-.054-.1-.072-.218-.135-.319-.053-.09-.143-.182-.205-.264-.126-.173.107-.319.25-.255.322.137.635.282.957.428.125 0 .25.01.367.019h.071V75.782c9.302 0 22.762 1.832 22.762 19.297 0 4.5-2.013 9.365-5.018 13.657 0 .009.01.027.018.036l-.018-.027ZM46.29 178.86h-.034.034ZM350.426 58.755c.268.127.519.364.617.646.036.1.063.192.098.292.099-.2.242-.374.421-.51a7.89 7.89 0 0 0 .197-1.376c.08-1.549-.045-2.97-.278-4.291a10.106 10.106 0 0 1-1.735-2.642c-.018-.037-.036-.073-.053-.119-.313.064-.644-.291-.457-.637.215-.392.385-.793.474-1.221-.026.018-.044.036-.071.055-.134.1-.34.054-.447-.055-.125-.128-.125-.3-.054-.456.09-.2.215-.346.385-.483-.027.028-.027.028 0 0 .026-.018.044-.036.071-.054.072-.137.152-.274.206-.42v-.017c-.93-2.952-1.601-5.758-.456-9.157 0 0-2.531.602-5.733 2.424-.054.191-.107.382-.17.574-.08.246-.179.492-.197.738a5.825 5.825 0 0 0 0 .792c0 .073-.107.082-.116.018a8.035 8.035 0 0 1-.072-.801c-.008-.264-.071-.51-.098-.775v-.145c-3.506 2.122-7.629 5.666-10.124 11.397-2.88 6.623-.17 12.318 2.62 15.934-4.096-14.494 7.307-20.79 7.307-20.79l-1.923 2.988c-.93 1.868-1.922 4.628-2.325 8.364.251-.2.501-.401.76-.601.161-.119.322-.237.465-.365.161-.146.278-.319.421-.483.036-.045.107 0 .089.055-.045.2-.152.4-.241.583-.09.182-.179.374-.295.538-.26.382-.573.71-.913 1.02-.143.128-.277.264-.411.392-.242 3.334 0 7.38 1.109 12.18-.072-.555.054-1.785 2.146-2.833 1.673-.838 4.848-2.77 7.191-5.43.152-.628.367-1.248.626-1.84a.371.371 0 0 1-.071-.246c.017-.146.044-.292.071-.437a.43.43 0 0 1-.054-.347c.126-.419.296-.847.546-1.202v-.018a.307.307 0 0 1 .107-.128 2.14 2.14 0 0 1 .412-.392.428.428 0 0 1 .17-.063v-.137c.009-.21-.117-.328-.287-.428-.053-.037 0-.11.045-.082l.027-.01ZM581.062 154.763a3.816 3.816 0 0 1-.376-.192c-.107-.064-.205-.136-.313-.2a1.313 1.313 0 0 1-.268-.228c-.054-.055-.089-.146-.062-.228v-.036c-.537-.228-1.074-.465-1.619-.683-.072-.028-.072-.155.018-.146.107.009.214.027.322.036.009-.009.026-.027.044-.027h.26v-.055a.45.45 0 0 1-.081-.255c0-.1.036-.2.072-.301.053-.154.125-.309.196-.455-5.339-8.446-8.263-14.604-9.167-17.875 2.388-.784 4.588-1.986 6.565-3.508 0-.018 0-.036.009-.054a6.158 6.158 0 0 0 .268-3.927c-.018-.073-.027-.137-.018-.201-.214-.482-.536-1.011-.984-1.266-.259-.055-.527-.109-.787-.182-.536-.155-.366-.929.126-.929.456-.037.903.091 1.341.209.072-.009.143 0 .215 0 .045 0 .089 0 .125.009.107 0 .197.018.304 0 .179-.027.367-.1.555-.073.241.037.357.274.509.456.027 0 .054.009.09.018.724-.428 1.583-.401 2.379-.127.492-.055.975-.073 1.449.018 2.987-4.501 4.731-10.049 4.731-15.926 0-15.105-11.618-23.97-24.64-27.222-.295.127-.563.31-.814.546-.178.173-.447.128-.581-.073-.152-.227-.304-.446-.402-.692-.027-.064-.027-.127-.054-.182 0 0 0-.018-.009-.028a48.021 48.021 0 0 0-9.731-1.002h-23.87c-.17.128-.34.255-.51.374-.196.137-.411.291-.644.4a.801.801 0 0 1-.089.101c-.393.456-.778.893-1.324 1.148-.241.11-.438-.155-.277-.364.054-.064.099-.128.152-.2a.334.334 0 0 1-.232-.256 4.361 4.361 0 0 1-.108-.838c-.17-.119-.34-.246-.509-.374h-11.538s-.026.082-.044.119a.49.49 0 0 1 .089.255.43.43 0 0 1-.42.428h-.349a.426.426 0 0 1-.259-.091.429.429 0 0 1-.34.3c1.189 1.486 2.298 3.718 3.094 6.214.608.282.93.884.939 1.567v.11c.125.6.224 1.22.278 1.83.017.192-.135.31-.296.32.161.992.269 1.986.296 2.951.277.365.509.775.706 1.185.116.237.206.492.304.738.143.182.295.355.483.5.635.356 1.279.584 2.03.748.492.1.68.574.608 1.011.269.255.537.51.832.747.027.028.018.073-.027.064-.384-.091-.769-.182-1.144-.21a.726.726 0 0 1-.278.137c-.241.064-.474.027-.715 0-.125.055-.251.11-.376.191-.331.228-.626.492-.921.757l-.063.09a.894.894 0 0 1-.143.238c-.018.027-.071.091-.125.173-.009.018-.027.036-.036.063-.044.073-.098.137-.134.192a.74.74 0 0 1-.608.282c-.125.11-.25.228-.385.319v44.934c.153.474.278.956.394 1.439a.391.391 0 0 1 .224.274c.232 1.093.322 2.223.304 3.352.071.265.152.538.205.811.152.857-.035 1.704-.42 2.469a.31.31 0 0 1-.107.128.068.068 0 0 1-.018.036c.018.137.035.264.044.401a5.454 5.454 0 0 1-.295 2.077 9.112 9.112 0 0 1-.331.838v8.355c0 5.229-1.055 9.393-3.174 12.536.035.018.062.037.098.055.232.118.25.382.134.574.125.191.063.474-.134.61-.081.055-.152.109-.233.155v.109c.045.219.072.301.179.483v.018c.081.01.161.055.233.128.116.128.232.237.358.346h14.568l2.54-4.118 2.943 4.118h12.601s.045-.091.081-.127l.036-.037s.009-.018.018-.027a.552.552 0 0 1 .089-.119c.089-.127.188-.255.295-.364.107-.109.242-.137.367-.109a1.621 1.621 0 0 1-.045-.365c-.009-.473.707-.574.814-.109.018.073.036.155.045.228h.009a.383.383 0 0 1 .304.073c.196.127.241.373.143.574-.018.045-.045.091-.063.145l-.027.246h1.405c.044-.136.098-.273.134-.41-.009-.255 0-.501.017-.756-2.557-3.781-3.881-8.363-3.881-13.848v-2.688a.702.702 0 0 1-.233-.328c-.143-.382-.241-.738-.447-1.102a16.566 16.566 0 0 0-.599-.957c-.447-.656-.93-1.266-1.413-1.886a.584.584 0 0 1-.134-.446 3.31 3.31 0 0 1-.268-.118c-.17-.092-.322-.201-.51-.256-.242-.072-.179-.41.053-.428.403-.027.796-.064 1.199-.1.17-.018.349-.027.51-.091.161-.064.304-.164.465-.237.304-.137.635-.2.939-.346.152-.073.313-.155.456-.246v-11.388s-.009-.028-.018-.037a3.483 3.483 0 0 1-.188-.465c-.232-.665-.572-1.275-.921-1.885a.364.364 0 0 1-.045-.128c-.304-.191-.599-.401-.921-.565-.215-.109-.268-.474-.08-.638a.892.892 0 0 1 .214-.127c-.17-.31.161-.638.465-.574.17.036.34.091.492.164a.377.377 0 0 1 .063-.283c.268-.409.59-.765.93-1.12v-4.009c4.892 13.848 12.414 26.722 22.073 37.682.035-.009.071-.028.107-.037.34-.109.707-.182 1.073-.155a1.3 1.3 0 0 1 .349.064c.036-.009.063-.027.098-.036.206-.064.483-.119.689-.028l.018-.018c.071-.118.161-.227.223-.346.027-.055.099-.055.135-.018.071-.046.152.055.098.118a1.852 1.852 0 0 1-.107.128c-.018.082-.036.164-.063.246-.036.136-.08.264-.125.401-.09.273-.188.537-.304.801a6.413 6.413 0 0 1-.385.748c-.009.027-.027.054-.036.072a107.729 107.729 0 0 0 5.635 5.676h26.902c-8.541-10.176-15.123-19.159-20.007-26.594l.045.019Zm-37.447-24.918v-16.199a7.33 7.33 0 0 1-.706-.966c-.134-.218-.277-.464-.304-.719 0-.064 0-.137.027-.21-.018 0-.045-.018-.063-.027-.17-.064-.259-.182-.402-.301-.072-.064-.036-.209.062-.228h.009c-.286-.209-.581-.41-.876-.601-.054-.036 0-.118.044-.082.349.21.689.428 1.047.629h.045c.089-.009.169 0 .259.009a.895.895 0 0 1 .349-.264l.062-.028c.072-.328.242-.637.439-.911V94.058c7.029 0 19.264 1.376 19.264 14.468s-12.235 21.337-19.264 21.337l.008-.018ZM498.826 114.84a6.476 6.476 0 0 1-1.019-.62c-.313-.228-.609-.455-.877-.747-.188-.2-.367-.41-.572-.592-.394-.137-.787-.273-1.172-.447a.773.773 0 0 1-.304-.264c-.215-.063-.438-.118-.653-.173-.188-.045-.384-.1-.581-.155h-.26l-.008-.009c-.179 0-.358-.018-.537-.018-.403-.018-.814.018-1.207-.018a.338.338 0 0 1-.305-.091c-.277.036-.563.073-.84.1-.125.009-.197-.064-.224-.155-.045.009-.089.027-.134.036a.039.039 0 0 1-.036-.036c0-.228.278-.383.465-.474a1.6 1.6 0 0 1 .85-.182c.009 0 .018-.009.036-.018.277-.073.563-.082.858-.082.108-.018.215-.037.322-.046.081-.036.17-.073.251-.118a.329.329 0 0 1 .125-.346c.036-.028.08-.046.116-.073.027-.019.045-.037.072-.046 0 0 .018 0 .027-.009.652-.355 1.475-.428 2.003-.957a.662.662 0 0 1 .25-.154c.054-.037.099-.073.152-.11.17-.118.376-.228.564-.346-.206-.237-.224-.565-.09-.865.063-.146.135-.283.197-.429-2.468-5.903-5.867-11.078-10.133-15.333-1.744-2.651-1.78-5.712 2.102-8.5 3.693-2.278 5.438-5.621 6.117-9.967.93 3.234.376 7.16-1.699 9.967-1.234 1.776-3.184 2.77-4.007 4.464-.518 1.695 1.735 3.043 3.47 4.255 4.803-1.804 5.841-6.35 5.411-11.033a3.275 3.275 0 0 1-.483-.775 2.781 2.781 0 0 1-.241-.801c-.027-.183.062-.383.116-.556.045-.146.089-.292.143-.447.018-.063.045-.127.063-.19-.725-3.663-2.075-7.098-2.916-9.03a.38.38 0 0 1-.393 0 .36.36 0 0 1-.161-.19.16.16 0 0 1-.188-.02c-.34 5.003-4.338 8.483-8.926 10.961 0 .018-.009.027-.018.046-.483.965-1.234 2.204-2.307 2.441.322.292-.152.766-.465.474-.233-.21-.465-.42-.68-.638-.018-.018-.036-.045-.054-.064-.134-.027-.232-.136-.286-.264-.045-.045-.089-.082-.134-.127-.027-.028-.063-.055-.098-.082h-.009c-.018-.01-.027-.018-.045-.028-.009-.009-.027-.018-.036-.027-.116.027-.241.046-.366.073a.62.62 0 0 1-.313.055c-4.267.701-9.454-.383-11.913-1.012-5.196-1.658-10.902-2.542-17.074-2.542-17.931 0-32.715 7.426-41.828 19.634-.752 2.132-1.172 4.364-1.753 6.541v.019c0 .173 0 .355-.009.528-.018.164-.099.301-.251.355a.695.695 0 0 1-.295.501c.009.119.018.228.036.347.054.145.098.282.161.428.232.546.456 1.066.876 1.485.403.401.734.783.93 1.33.17.474-.393.756-.76.592a5.5 5.5 0 0 0-.617-.237.762.762 0 0 1-.25.064c-.564.018-1.1.237-1.664.301a2 2 0 0 1-.402 0c-.054.036-.099.063-.152.1-.573.383-1.208.629-1.843.884a26.224 26.224 0 0 1-1.69 2.523c-.018.028-.045.055-.063.091-.017.019-.026.037-.044.046-1.395 4.874-2.138 10.131-2.138 15.679 0 15.935 6.064 29.81 16.152 39.386.063-.019.125-.046.188-.064.34-.118.698-.2 1.046-.282.403-.101.805-.228 1.226-.192.241.028.474.091.706.182.063-.018.26-.054.278-.063.304-.055.563-.064.867.009.259.064.492.164.689.355l.053.055c.26-.019.519-.073.778-.091.197-.009.394-.009.582 0a2.51 2.51 0 0 1 .697.054.47.47 0 0 1 .385.419c.116.019.215.055.259.11.018.027.027.036.027.054a.29.29 0 0 1 .09.019c.017 0 .035.036.017.054-.59.51-1.466.647-2.182.993.009.183-.018.365-.098.538a3.383 3.383 0 0 0-.179.419 1 1 0 0 1-.626.638c0 .1.009.2.027.3.062.183.089.383.098.565 8.434 6.141 18.96 9.685 30.712 9.685 21.035 0 38.422-11.343 46.033-29.592-.027-.255-.045-.537.035-.783 0-.027.018-.055.027-.073a7.03 7.03 0 0 0-.483-.437 33.64 33.64 0 0 1-.339-.255c-.072-.055-.135-.11-.197-.164a2.827 2.827 0 0 0-.054-.055 3.381 3.381 0 0 1-.501-.146c-.492-.2-.975-.373-1.404-.692-.071-.055 0-.164.072-.119.268.173.581.265.885.328.286.064.563.037.85.009.304-.027.617-.018.921-.045.322-.018.635-.055.957-.064h.206c2.048-5.749 3.157-12.126 3.157-18.996 0-6.04-.716-11.707-2.075-16.927l-.072-.009Zm-25.793 41.59c-.072 0-.125-.037-.17-.091-.018-.028-.036-.046-.054-.073h-.026c-.242-.009-.421-.173-.6-.337a4.266 4.266 0 0 1-.554-.647c-.188-.264-.385-.51-.581-.756h-.126c-.143 0-.286.018-.429.036-1.762 7.352-5.223 13.712-10.965 13.712-3.38 0-8.004-2.351-12.637-6.496a.35.35 0 0 1-.215 0 14.959 14.959 0 0 0-.679-.21h-.063a.4.4 0 0 1-.286-.109c-.456-.128-.921-.246-1.377-.365a.383.383 0 0 1-.215-.154c-.492.127-.975.246-1.467.364-.268.064-.554.155-.841.21-.017 0-.026.018-.044.018a.576.576 0 0 1-.224.109c-.519.246-1.073.465-1.645.556-.161.027-.313-.164-.17-.301.357-.337.787-.574 1.234-.747v-.018c0-.064.009-.128.036-.182a.736.736 0 0 1-.349-.192c-.197-.173-.143-.555.089-.674.161-.082.331-.182.474-.282.027-.838.072-1.686.081-2.524-.546-1.057-.904-2.223-1.369-3.298 0-.018-.009-.027-.018-.046-4.328-5.867-8.04-13.265-9.918-21.628-.948-4.546-1.485-9.366-1.485-13.22 0-2.186.135-5.421.627-8.883 0-.009-.009-.018-.018-.036-.018-.036-.036-.064-.054-.1-.402-.201-.787-.438-1.1-.766a24.138 24.138 0 0 1-1.404-1.157c-.072-.063.027-.191.098-.127.34.264.707.474 1.091.674.17-.228.403-.374.698-.319a.857.857 0 0 1 .268.091c.134 0 .26 0 .385-.018.107 0 .214-.018.322-.018 1.359-7.617 4.597-15.643 12.065-15.643 19.47 0 30.551 29.609 30.551 49.024 0 2.779-.233 5.922-.743 9.047.206.529.394 1.066.564 1.604.098.309.197.619.286.929.098.328.152.656.233.984.071.282.169.556.277.829.152.209.295.437.34.665.035.055.071.109.107.155l.08.109a.284.284 0 0 1 .036.191c0 .046-.071.092-.116.092v.018ZM789.375 156.175c-.626-1.768-1.493-3.38-2.495-4.865 0-.009.018-.019.018-.037 0 0-1.852-4.163-8.72-8.199 0 0 6.851-.01 9.802 5.785.662-1.968 1.019-4.446.376-6.842a.354.354 0 0 1-.385-.091.209.209 0 0 1-.045-.073c-.152 0-.295-.037-.447-.073-.161-.046-.34-.046-.501-.082a1.625 1.625 0 0 1-.456-.164c-.134-.082-.045-.283.107-.246.161.036.331.055.501.064.09 0 .17 0 .26-.009.08-.01.143-.037.223-.055h.036c-.054-.173-.089-.346-.143-.519a.414.414 0 0 1 .188-.465 8.694 8.694 0 0 0-1.163-1.722c-3.899-4.537-6.359-2.997-10.598-5.403-2.513-1.43-3.738-3.015-4.32-4.072a.294.294 0 0 1-.34-.109c-.08-.128-.17-.246-.25-.365a35.802 35.802 0 0 0-.089 6.76c.053.082.098.164.143.255.107.201.196.401.295.602a.43.43 0 0 1 .438.419v.073c.009.073.027.136.036.209.027.137.045.283.053.419.108.228.206.465.322.693.036.073.072.146.117.209.214.374-.295.674-.555.383a4.788 4.788 0 0 1-.197.619c-.017.046-.035.082-.053.119.832 3.653 2.522 7.434 5.822 10.131 0 0-.018 1.54-2.951-.21 0 0 .375 3.608 3.657 5.467 2.755 1.567 5.161.838 7.316-1.513a20.19 20.19 0 0 1 1.127 3.763c.251 1.248.376 2.542.367 3.845.116.319.215.656.295.993.107.346.197.71.152 1.075.009.319-.465.41-.572.146-.644 5.548-3.64 10.814-8.971 12.673-6.09 2.423-13.558 1.603-18.405-2.715-2.657-2.333-4.428-4.601-4.419-8.072-.08-3.517 1.396-9.147 2.719-15.033a69.67 69.67 0 0 0 1.717-9.366c-.017-.063-.035-.118-.044-.182a6.653 6.653 0 0 1-.179-1.029 5.144 5.144 0 0 1 0-.912c0-.236-.027-.473-.063-.683a3.374 3.374 0 0 0-.268-.838.509.509 0 0 1-.098-.2 3.526 3.526 0 0 0-.17-.31.419.419 0 0 1-.027-.374c-.027-.045-.045-.091-.072-.136-.116-.201-.232-.401-.34-.602-.268-.483.43-.883.725-.428.08.119.152.246.214.365.152-.246.296-.502.43-.757.161-.291.313-.583.465-.883.053-1.012.08-2.023.08-3.052 0-8.801-1.878-16.964-5.259-24.053l-.456-.464a.383.383 0 0 1-.331.036.407.407 0 0 1-.304-.036s-.009 0-.018-.009c-.143.1-.348.118-.5-.055a2.986 2.986 0 0 1-.492-.747c-.09-.128-.188-.255-.269-.383a6.009 6.009 0 0 1-.688-.483 4.079 4.079 0 0 1-.662.164c-.179.028-.385-.009-.474-.191 0-.009-.009-.018-.018-.036a9.232 9.232 0 0 0-.537.656c-.107.145-.286.227-.465.127-.143-.091-.223-.319-.125-.474.438-.619.895-1.22 1.324-1.84-.063-.055-.099-.137-.134-.209-.045-.11-.09-.192-.063-.319.018-.073.054-.146.072-.219.026-.109.044-.219.062-.337a.43.43 0 0 1-.08-.246c0-.255-.063-.492-.108-.756-.017-.119-.044-.246-.053-.365a.377.377 0 0 1-.054-.209v-1.039c-8.371-11.725-21.581-19.068-37.151-19.068h-12.682a1.48 1.48 0 0 1 0 .282c-.027.173-.063.337-.099.501 0 .255.027.51.045.765.054.538.152 1.066.116 1.604-.053.792.17 1.877-.438 2.523-.179.192-.492.137-.617-.082-.152-.255-.304-.528-.51-.756a4.199 4.199 0 0 1-1.789-.82c-.554-.437-.992-.947-1.431-1.494 0 0-.017-.009-.017-.018-.689-.574-1.396-1.184-2.156-1.676-.295-.091-.599-.173-.894-.274-.385-.127-.751-.346-1.1-.555h-15.732c.537.692 5.134 6.887 5.134 14.458v7.407c.044.1.08.201.125.31.331.865.572 1.776.733 2.706l.009.018c.063.1.125.191.188.292a.397.397 0 0 1 .143.154c.134.256.259.474.277.775v.027c.26 0 .528.237.421.529-.009.036-.027.063-.045.1v.009a5.899 5.899 0 0 1-.572.82 1.718 1.718 0 0 1-.17.264c0 1.522-.215 3.152-1.002 4.473a.322.322 0 0 1-.107.11v37.454c.34-.028.679-.064 1.019-.092 1.27-.318 2.522-.874 3.846-.874.089-.064.188-.119.277-.182.188-.146.474.091.394.309-.036.101-.081.192-.117.292.072.219.018.474-.232.583-.036.091-.081.173-.125.264.188.41.17.92-.233 1.358-.367.41-.644.811-1.082 1.312-.34.391-.671.792-.993 1.202-.036.055-.071.1-.107.155a5.347 5.347 0 0 0-.25.51c-.063.137-.108.274-.161.401a.986.986 0 0 1-.018.729c-.045.1-.09.2-.125.31a8.77 8.77 0 0 1-.475 1.011c-.026.055-.062.1-.089.155-.331 1.203-.644 2.414-1.252 3.526a.848.848 0 0 1-.268.291v5.048c0 4.181-.591 8.208-2.549 11.689a7.802 7.802 0 0 0-.134.646 5.115 5.115 0 0 1-.269.957v.419a.38.38 0 0 1 .286.392v.847c.018.064.027.137.045.201h35.059c2.218 0 4.382-.146 6.475-.429a6.14 6.14 0 0 0-.206-.309c-.027-.046-.062-.082-.089-.128-.009-.009-.045-.064-.063-.073l-.214-.246a1.875 1.875 0 0 0-.242-.227.22.22 0 0 0-.054-.046l-.017-.018a.77.77 0 0 0-.144-.1c-.089-.064-.187-.119-.277-.174a11.45 11.45 0 0 1-1.154-.391c-.491-.201-.313-.921.224-.811.429.082.85.218 1.243.419.233.064.474.127.707.191 1.619.383 3.282.556 4.856 1.057a43.205 43.205 0 0 0 15.034-6.796c0-.292-.018-.593 0-.884a.947.947 0 0 1-.143-.456c-.027-.419.581-.574.769-.209.054.109.126.2.197.3a.592.592 0 0 1 .161.137c.009 0 .018.018.027.027.036.046.08.091.107.146.179.037.295.191.304.383.027.455 0 .92-.018 1.385a23.59 23.59 0 0 0 3.229 5.393c.045.027.089.046.125.073.286.155.582.273.886.392.205.082.411.173.626.209a.25.25 0 0 1 .134.073.425.425 0 0 1 .366.109c.242-.1.591.082.582.392 0 .456-.125.902-.242 1.339a.14.14 0 0 1-.035.082c4.23 3.982 9.784 6.478 15.463 6.742 8.881.31 17.02-3.462 23.334-9.475a21.167 21.167 0 0 0 2.763-4.345c0-.42.027-.839.099-1.24a3.083 3.083 0 0 1 .813-1.548c.117-.119.224-.246.34-.365 1.601-5.111 1.539-10.787-.134-15.752l.009-.018Zm-54.672-36.069c-.393.337-.751.71-1.1 1.093a.386.386 0 0 1 .108.282c0 .365-.063.702-.161 1.039-.09.355-.206.711-.322 1.057-.081.228-.287.282-.457.228a98.34 98.34 0 0 1 .224 6.723c0 30.229-11.895 34.994-22.064 35.486a8.637 8.637 0 0 0-.769.638c-.331.31-.554.556-.751.929-.179.346-.653.228-.76-.091a3.097 3.097 0 0 1-1.02.392.423.423 0 0 1-.465-.62c.063-.127.116-.246.188-.364a.573.573 0 0 1 .098-.173c.233-.246.421-.529.662-.775a.365.365 0 0 1 .089-.072l.054-.21a.34.34 0 0 1-.036-.319c.09-.228.188-.455.296-.683.071-.401.143-.793.375-1.148v-28.981a9.264 9.264 0 0 0-1.198-2.05c-.018 0-.036-.018-.054-.027-.206-.091-.42-.183-.635-.356-.161-.127-.259-.209-.358-.291-.393-.301-.787-.601-1.162-.92-.385-.328-.752-.602-1.02-1.039-.197-.319-.358-.647-.527-.984a4.338 4.338 0 0 0-.153-.282 4.234 4.234 0 0 0-1.341-.52c-.376-.073-.403-.628-.107-.801.259-.155.554-.328.858-.374.304-.045.635 0 .939.046.546.073 1.091.209 1.655.218.17 0 .331-.018.483-.054.044-.055.08-.11.143-.146-.099.082.054-.046.071-.064.054-.045.099-.1.152-.146.26-.264.322-.373.51-.647.501-.747.966-1.485 1.565-2.086.072-.182.126-.373.188-.565V94.842c9.024 0 20.275 2.469 23.334 23.442a.413.413 0 0 1 .179.173c0 .018.018.027.026.045a.381.381 0 0 1 .108.073.331.331 0 0 1 .268.064c.027.018.054.045.081.064.205-.009.42.118.447.355.044.036.089.082.134.118.08.037.161.064.241.091.135.037.278.073.421.101H734.462c.348-.028.554.483.286.71l-.045.028ZM212.177 151.282c-7.96-5.175-14.256-13.593-18.764-21.246 8.139 7.881 12.226 7.271 12.226 7.271-5.912-4.656-10.589-11.261-14.158-17.794 5.295 4.929 8.184 4.756 8.184 4.756-3.283-3.07-6.064-6.796-8.416-10.75-.045-.019-.09-.037-.134-.064a3.083 3.083 0 0 1-.85-.601.378.378 0 0 1-.098-.164 1.636 1.636 0 0 0-.519.227c-.09.11-.197.192-.313.21a.362.362 0 0 1-.412-.219.394.394 0 0 1-.205.073c-.036.046-.072.091-.099.146-.018.036-.035.082-.053.118a.883.883 0 0 1-.126.192.351.351 0 0 1-.482.027.44.44 0 0 1-.135-.2.472.472 0 0 1 .036-.292c.063-.128.206-.237.34-.301.009 0 .018-.018.027-.018 0 0 .009-.009.018-.009a.133.133 0 0 1 .035-.027.59.59 0 0 1 .009-.173c.108-.347.072-.757.251-1.075 0-.01 0-.019.009-.028.018-.027.036-.064.062-.091l.018-.018v-.018c-.009-.009-.018-.019-.018-.028a.427.427 0 0 1-.089-.464.384.384 0 0 1 .072-.11c-.161-.628-.215-1.275-.081-1.904-.036-.155-.063-.3-.098-.455-3.918-8.045-6.243-16.272-7.45-21.392-.206-1.576-.367-3.17-.501-4.792a2.345 2.345 0 0 1-.474-.629.456.456 0 0 1-.349-.3 4.274 4.274 0 0 1-.215-1.158h-2.477c-.197.274-.456.465-.733.638a.362.362 0 0 1-.287.046c-.205.1-.42.182-.626.264.054.273-.187.583-.5.492-.761-.228-1.378-.72-2.048-1.13-.153-.1-.314-.2-.483-.31h-29.854a4.147 4.147 0 0 1-.367.52l3.828 4.6c.599.046 1.216.228 1.699.575.6.428 1.047 1.002 1.574 1.521.197.2.117.474-.08.629a.637.637 0 0 1-.098.063v.073c0 .21-.126.428-.322.483-.135.037-.287.01-.43-.018a.957.957 0 0 1-.483.4c-.733 2.725-1.592 5.422-2.459 8.082a.588.588 0 0 1 .134.665c-.134.346-.331.756-.456 1.157 0 .191 0 .374-.018.565l-.027.647c0 .027.009.064.009.1.027.31.036.629.054.938.036.565.152 1.103.223 1.668l.027.273v.018a.834.834 0 0 1 .054.201c.027.109.063.218.098.328.099.255.304.637.412.965.08.201.062.429 0 .638.107.137.223.273.331.401.08.1.098.237.071.364.17.237.358.474.564.684.25.082.492.164.733.264.438.182.662.392.751.884.036.182-.107.3-.241.319-.277.027-.456.054-.734-.064a5.866 5.866 0 0 0-.438-.173h-.009c-.018 0-.027-.009-.045-.019a.416.416 0 0 1-.447-.009c-.009 0-.026-.018-.035-.027.026.401-.34.802-.805.537-.743-.419-1.691-.227-2.433.119-.42.2-.859.474-1.198.747-.394.31-.707.692-1.109.993-.027.018-.063.037-.09.055l-11.144 31.295c.045.155.09.31.126.464.17.638.322 1.267.366 1.923.036.492.036 1.066-.25 1.485-.098.146-.286.255-.465.191a15.462 15.462 0 0 0-.34-.109 3.173 3.173 0 0 0-.295-.073c-.018 0-.036 0-.063-.009-.035 0-.071 0-.098-.009 0 0 0 .018-.009.018-.089.173-.188.392-.322.528a.875.875 0 0 1-.286.164l-5.429 15.233c-2.442 6.979-5.974 12.846-10.526 17.766.035.082.062.164.098.246.062.182.179.401.125.592-.054.182-.215.319-.402.31a.382.382 0 0 1-.206-.055c-.018.037-.045.082-.063.119l-.134.218c.045.164.09.328.143.502l.215.41h35.837c.098-.228.196-.456.304-.675a2.068 2.068 0 0 1-.179-.41c-.072-.218.098-.482.313-.528-.331-1.868-.644-4.136-.644-6.232 0-2.478.268-4.819.948-7.024l2.603-9.512a1.324 1.324 0 0 1 .017-.528c0-.009 0-.027.009-.036a.32.32 0 0 1-.035-.137v-.182a.33.33 0 0 1 .125-.274.254.254 0 0 1 .206-.1c0-.018.017-.027.026-.045l.018-.073h.018c.054-.091.107-.182.188-.255.08-.082.215-.091.313-.037a.172.172 0 0 1 .08.082.613.613 0 0 0 .054-.109c.054-.155.242-.246.376-.164a.304.304 0 0 1 .107-.055c.027-.027.054-.054.09-.082a.242.242 0 0 1 .134-.136l.053-.11c.045-.109.188-.146.287-.118.116.027.178.136.187.255v.036c0 .019.009.046.018.064 0 .018.009.037.018.064 0 .009 0 .018.009.027.036.073.072.137.107.21a.239.239 0 0 1 .054.045c.107.11.224.201.34.292h16.626l2.835 11.288a28.356 28.356 0 0 1 .367 11.753c.027.063.062.127.089.191a.604.604 0 0 1 .161.31c.036.209-.036.401-.223.492a1.166 1.166 0 0 0-.027.255.35.35 0 0 1 .205.191c.17.392.135.765.135 1.175 0 .028 0 .055-.009.082h22.654c.143-.091.277-.164.42-.246.233-.127.447-.282.68-.41.098-.054.232-.091.322-.164a.207.207 0 0 0 .062-.063c.108-.192.197-.401.278-.602.044-.109.143-.173.259-.2.063-.073.125-.137.179-.219.036-.054.125-.027.152.019.143.246.366.373.572.564.188.183.322.429.429.675.09.209.17.428.251.637h10.017c.018-.054.044-.1.071-.155a.268.268 0 0 1 .09-.109c.018-.191.035-.392.071-.583l-.053-.137c-.161-.391-.197-.774-.188-1.202 0-.128 0-.255.009-.383l-1.682-2.533c-1.753-2.605-3.219-5.375-4.498-8.227-.045 0-.09 0-.134-.018-.957-.3-1.771-.929-2.487-1.631a23.335 23.335 0 0 1-.679-.692.637.637 0 0 1-.385-.182c-.59-.192-1.216-.21-1.851-.31-.322-.055-.448-.301-.421-.565-.25-.164-.393-.483-.196-.82.178-.373.348-.747.518-1.13.349-.892.582-1.849.769-2.751.072-.355.152-.701.188-1.066.027-.346 0-.729.081-1.066.089-.337.277-.674.501-.975-.537-1.74-1.047-3.48-1.539-5.22l-2.862-9.867c11.564 10.796 16.734 9.539 16.734 9.539l.009.027Zm-43.681-12.828s-.035-.036-.053-.063a.16.16 0 0 1-.099.063c-.026 0-.062.019-.098.019-.072 0-.089-.046-.143-.082-.054-.037-.099-.046-.161-.037-.125.028-.242.082-.367.1a.068.068 0 0 1-.045.064c-.035.018-.062 0-.089-.018l-.018-.009s-.009 0-.018-.009h-.036c-.053 0-.134 0-.187-.018a.243.243 0 0 1-.09-.055c-.027 0-.044 0-.071.009h-.027c-.036.009-.063.018-.099.018-.062 0-.116.009-.178 0v.009c-.027.028-.081 0-.072-.036V138.382c0-.019 0-.037.018-.055v-.009c-.027-.018-.054-.046-.089-.064-.036-.027-.063-.055-.09-.082a.312.312 0 0 1-.071-.109c-.009 0-.027 0-.036-.018a.32.32 0 0 1-.099-.119c-.098-.009-.178-.073-.214-.182h-.027c-.098-.018-.188-.073-.268-.119l-.072-.045a.65.65 0 0 1-.402-.155h-11.484l7.978-33.19 5.634 31.459c.099.173.161.355.215.547l.053.191c.018.027.036.064.054.091a.945.945 0 0 1 .277.292c.036.045.063.1.09.145a.533.533 0 0 1 .143.137c.027.046.036.1.036.146V137.416a.484.484 0 0 1 .107.31v.027c.009.018.018.046.027.064.018.045.027.082.045.127 0 .028.017.046.017.073v.082c0 .018 0 .028-.009.037 0 .009.009.018.018.027.036.073.09.173.063.255-.009.046-.054.046-.089.027l.026.009ZM398.963 214l-9.212-9.384 9.212-9.384 9.211 9.384-9.211 9.384Zm-6.288-9.384 6.297 6.414 6.296-6.414-6.296-6.414-6.297 6.414ZM385.233 204.614l-4.364-4.445-4.363 4.445 4.363 4.445 4.364-4.445ZM421.461 204.612l-4.363-4.445-4.364 4.445 4.364 4.445 4.363-4.445Z"/><path d="M417.091 202.393v4.446L800 204.616l-382.909-2.223ZM380.843 202.393v4.446L0 204.616l380.843-2.223Z"/></svg>
