<svg xmlns="http://www.w3.org/2000/svg" viewBox="0 0 64 64">
  <defs>
    <linearGradient id="seiga-favicon-gradient" x1="10" y1="54" x2="54" y2="10" gradientUnits="userSpaceOnUse">
      <stop stop-color="#8b5cf6"/>
      <stop offset=".45" stop-color="#4f7cff"/>
      <stop offset="1" stop-color="#67e8f9"/>
    </linearGradient>
    <filter id="seiga-favicon-glow" x="-30%" y="-30%" width="160%" height="160%">
      <feGaussianBlur stdDeviation="2.4" result="blur"/>
      <feMerge>
        <feMergeNode in="blur"/>
        <feMergeNode in="SourceGraphic"/>
      </feMerge>
    </filter>
  </defs>
  <rect width="64" height="64" rx="16" fill="#071225"/>
  <path filter="url(#seiga-favicon-glow)" fill="url(#seiga-favicon-gradient)" d="M48 12c-11.8 1.6-22 5.5-30.4 11.6-3.7 2.7-4.8 7.7-2.5 11.6 2.7 4.5 8.6 5.5 13.4 6.4 4 .8 7.2 1.4 7.7 3.4.5 2.1-3.5 4.2-14.2 7.1 13.6.1 24.5-3.2 31.6-9.4 3.6-3.2 4-8.6.8-12.2-2.9-3.3-8.3-4.3-13-5.1-4.1-.7-7.7-1.4-8.3-3.3-.6-2.1 3.8-5 14.9-10.1Z"/>
  <path fill="#e0f2fe" fill-opacity=".86" d="M45.7 17.5c-8 1.9-14.1 4.1-18.3 6.8-2.1 1.3-2 3.8.5 4.8 1.9.8 5.7 1.4 11.5 2.1-8.6-.2-15.9.9-22 3.4-1.1-2.7-.2-5.8 2.2-7.6 6.9-5 15.6-8.2 26.1-9.5Z"/>
</svg>
